# xmcd CD database file
#
# Track frame offsets:
#	150
#	22882
#	47839
#	71102
#	96488
#	122468
#	148035
#	166066
#	189291
#	205168
#
# Disc length: 3108 seconds
#
# Revision: 0
# Processed by: cddbd v1.5.2PL0 Copyright (c) Steve Scherf et al.
# Submitted via: CDex 1.70beta2
#
DISCID=860c220a
DTITLE=Juan Pablo Torre - Identidad
DYEAR=1900
DGENRE=Salsa
TTITLE0=Cubanacan
TTITLE1=Consuelo El Te
TTITLE2=Asabache
TTITLE3=Agiaco
TTITLE4=Rio Cauto
TTITLE5=Elsa' Bor
TTITLE6=Casabe
TTITLE7=Tumbao.com
TTITLE8=Guanabo
TTITLE9=Guayabera
EXTD=
EXTT0=
EXTT1=
EXTT2=
EXTT3=
EXTT4=
EXTT5=
EXTT6=
EXTT7=
EXTT8=
EXTT9=
PLAYORDER=
